<svg t="1750212318586" class="icon" viewBox="0 0 1024 1024" version="1.1" xmlns="http://www.w3.org/2000/svg" p-id="3576" width="200" height="200"><path d="M377.325157 265.393158m23.780749 0l11.890374 0q23.780749 0 23.780749 23.780749l0 70.391017q0 23.780749-23.780749 23.780749l-11.890374 0q-23.780749 0-23.780749-23.780749l0-70.391017q0-23.780749 23.780749-23.780749Z" p-id="3577" fill="#ffffff"></path><path d="M586.595747 265.393158m23.780749 0l11.890375 0q23.780749 0 23.780749 23.780749l0 70.391017q0 23.780749-23.780749 23.780749l-11.890375 0q-23.780749 0-23.780749-23.780749l0-70.391017q0-23.780749 23.780749-23.780749Z" p-id="3578" fill="#ffffff"></path><path d="M939.026446 475.614979a23.780749 23.780749 0 0 1-23.780749-23.780749 403.797117 403.797117 0 0 0-808.545463 0 23.780749 23.780749 0 0 1-23.780749 23.780749 23.780749 23.780749 0 0 1-23.780749-23.780749 451.358615 451.358615 0 0 1 903.668459 0 23.780749 23.780749 0 0 1-23.780749 23.780749z" p-id="3579" fill="#ffffff"></path><path d="M178.993711 707.715088h-30.914974A87.513156 87.513156 0 0 1 60.565581 618.299472V446.602465a62.781177 62.781177 0 0 1 62.781177-62.781177h55.646953A87.513156 87.513156 0 0 1 266.506867 470.858829V618.299472a87.513156 87.513156 0 0 1-87.513156 89.415616zM123.346758 431.382786a15.219679 15.219679 0 0 0-15.219679 15.219679V618.299472a39.951658 39.951658 0 0 0 39.951658 39.951658h30.914974a39.951658 39.951658 0 0 0 39.951658-39.951658V470.858829a39.951658 39.951658 0 0 0-39.951658-39.476043zM865.306125 707.715088h-10.939145a97.501071 97.501071 0 0 1-97.50107-95.122996v-131.745349a95.122996 95.122996 0 0 1 97.50107-95.122995h47.561498A58.976257 58.976257 0 0 1 964.23404 442.32193v168.367702a97.501071 97.501071 0 0 1-98.927915 97.025456z m-10.939145-276.332302a47.561498 47.561498 0 0 0-49.939573 47.561497v129.84289a47.561498 47.561498 0 0 0 49.939573 47.561497h10.939145a47.561498 47.561498 0 0 0 47.561498-47.561497V442.32193a10.939145 10.939145 0 0 0-11.41476-10.939144zM522.387725 1023.999049a100.830375 100.830375 0 1 1 100.354761-100.354761 100.830375 100.830375 0 0 1-100.354761 100.354761z m0-153.623638a53.268878 53.268878 0 1 0 52.793263 53.268877 53.268878 53.268878 0 0 0-52.793263-53.268877z" p-id="3580" fill="#ffffff"></path><path d="M605.620346 969.778941a23.780749 23.780749 0 0 1-4.756149-47.561498A404.272732 404.272732 0 0 0 916.672542 618.299472a23.780749 23.780749 0 0 1 47.561498 10.939145 451.358615 451.358615 0 0 1-350.528239 340.540324zM511.448581 656.34867a205.941286 205.941286 0 0 1-186.441072-119.379359 18.548984 18.548984 0 0 1 9.036685-25.207594 19.024599 19.024599 0 0 1 25.207594 9.036684 167.416472 167.416472 0 0 0 304.393586 0 19.500214 19.500214 0 0 1 25.207594-9.036684 18.548984 18.548984 0 0 1 9.512299 25.207594 206.416901 206.416901 0 0 1-186.916686 119.379359z" p-id="3581" fill="#ffffff"></path></svg>